<?xml version="1.0" standalone="no"?>
<!DOCTYPE svg PUBLIC "-//W3C//DTD SVG 20010904//EN"
 "http://www.w3.org/TR/2001/REC-SVG-20010904/DTD/svg10.dtd">
<svg version="1.0" xmlns="http://www.w3.org/2000/svg"
 width="512.000000pt" height="512.000000pt" viewBox="0 0 512.000000 512.000000"
 preserveAspectRatio="xMidYMid meet">
<metadata>
Created by potrace 1.11, written by Peter Selinger 2001-2013
</metadata>
<g transform="translate(0.000000,512.000000) scale(0.100000,-0.100000)"
fill="#000000" stroke="none">
<path d="M2406 5020 c-114 -24 -287 -108 -377 -184 -116 -97 -216 -249 -267
-406 -68 -210 -51 -408 52 -615 72 -143 140 -222 290 -338 l36 -28 0 -274 0
-274 -37 -28 c-20 -15 -62 -52 -93 -80 l-57 -53 -541 0 c-344 0 -559 -4 -591
-11 -73 -15 -135 -59 -170 -120 -51 -90 -530 -1293 -547 -1374 -12 -60 -15
-145 -12 -472 l3 -398 27 -50 c34 -65 69 -98 143 -132 l60 -28 2215 0 2215 0
52 24 c61 27 125 92 156 159 22 46 22 55 22 487 l0 440 -99 235 c-54 129 -149
354 -211 500 -61 146 -142 337 -179 425 -80 190 -113 239 -187 280 l-54 30
-527 3 -528 3 -22 30 c-13 17 -53 53 -90 80 l-68 49 0 274 0 274 68 51 c374
277 460 773 201 1161 -192 287 -545 431 -883 360z m-48 -1524 c31 -13 86 -30
121 -37 109 -21 101 19 101 -503 0 -354 -3 -455 -12 -459 -7 -2 5 -8 26 -12
85 -17 245 38 290 98 16 22 22 47 24 110 2 45 8 86 12 91 21 21 161 -85 198
-150 10 -18 29 -19 564 -24 426 -4 558 -8 576 -18 12 -7 33 -30 45 -50 20 -31
261 -598 496 -1163 73 -176 79 -227 33 -300 -16 -24 -43 -56 -60 -70 l-30 -26
-2179 -7 c-1412 -5 -2189 -4 -2210 3 -32 9 -32 9 -38 -33 -4 -23 -5 -143 -3
-267 3 -241 7 -260 56 -282 21 -9 438 -13 1747 -17 1748 -5 1775 -6 1775 -40
0 -6 -19 -20 -42 -30 -42 -19 -86 -20 -1776 -20 -1730 0 -1733 0 -1773 21 -29
14 -46 32 -60 62 -17 39 -19 70 -19 442 0 305 3 412 14 450 7 28 111 286 231
575 119 289 231 559 247 600 17 41 42 90 56 109 46 62 33 61 672 61 l582 0 21
27 c48 60 105 110 157 137 30 16 58 34 62 40 4 6 8 164 8 352 0 187 3 344 7
347 10 11 20 9 81 -17z m516 -2 c11 -27 6 -363 -5 -409 -12 -47 -31 -62 -49
-40 -14 17 -29 178 -30 321 0 104 6 121 50 137 24 9 28 8 34 -9z"/>
<path d="M3126 2529 c-14 -72 -151 -167 -292 -203 -83 -21 -239 -37 -316 -31
l-63 4 75 -13 c41 -7 68 -14 60 -15 -9 0 -17 -12 -18 -27 -1 -14 -11 -60 -21
-102 -11 -42 -23 -97 -26 -122 -3 -25 -17 -87 -30 -138 -20 -81 -21 -93 -8
-101 13 -7 13 -9 -1 -14 -9 -4 -16 -18 -16 -33 0 -26 0 -26 -62 -20 -61 5 -62
5 -18 -5 82 -20 343 -15 450 8 181 39 329 119 390 211 49 75 49 87 -20 365
-35 138 -66 256 -70 260 -4 5 -10 -6 -14 -24z"/>
<path d="M857 1634 c-107 -26 -197 -89 -229 -162 -24 -53 -19 -90 19 -145 109
-157 389 -210 590 -111 112 54 171 150 149 239 -9 37 -77 107 -134 138 -102
55 -265 73 -395 41z m107 -12 c3 -5 28 -4 55 1 38 8 53 8 65 -2 23 -19 19 -73
-8 -113 l-23 -35 32 -12 c61 -22 53 -65 -29 -162 -33 -38 -65 -69 -72 -69 -6
0 -21 8 -33 18 -19 16 -21 30 -26 172 -3 85 -8 163 -11 172 -3 10 -2 22 1 28
7 12 42 13 49 2z"/>
<path d="M998 1559 c-16 -9 -26 -59 -12 -59 10 0 43 44 44 58 0 14 -9 15 -32
1z"/>
<path d="M1008 1409 c-12 -7 -18 -22 -18 -47 l0 -37 36 37 c46 45 33 77 -18
47z"/>
<path d="M3967 1589 c-86 -24 -118 -41 -168 -86 -93 -84 -93 -162 0 -246 99
-90 249 -127 401 -101 113 20 177 53 244 125 79 85 75 131 -17 216 -54 50 -81
64 -171 92 -86 27 -196 27 -289 0z m297 -47 c3 -5 -9 -51 -25 -103 -17 -52
-33 -114 -37 -139 -6 -37 -11 -46 -30 -48 -30 -5 -52 14 -52 45 0 33 -21 113
-30 113 -11 0 -33 -82 -31 -121 0 -23 -5 -42 -15 -50 -30 -25 -46 2 -74 128
-15 66 -30 128 -33 137 -7 18 23 39 40 28 6 -4 16 -40 23 -79 7 -40 16 -73 20
-73 3 0 15 35 26 78 18 68 23 77 43 77 20 0 26 -9 41 -66 29 -112 30 -112 56
-24 13 44 26 86 29 93 5 13 41 17 49 4z"/>
</g>
</svg>
